<svg width="49" height="48" viewBox="0 0 49 48" fill="none" xmlns="http://www.w3.org/2000/svg">
<path fill-rule="evenodd" clip-rule="evenodd" d="M41.7932 14.24L41.5132 13.74C41.152 13.1354 40.6426 12.6329 40.0332 12.28L26.6132 4.54C26.0056 4.1875 25.3158 4.00124 24.6132 4H24.0332C23.3306 4.00124 22.6408 4.1875 22.0332 4.54L8.61325 12.3C8.00719 12.6505 7.50377 13.1539 7.15325 13.76L6.87325 14.26C6.52075 14.8677 6.33449 15.5575 6.33325 16.26V31.76C6.33449 32.4626 6.52075 33.1524 6.87325 33.76L7.15325 34.26C7.51283 34.859 8.01423 35.3604 8.61325 35.72L22.0532 43.46C22.6578 43.8198 23.3496 44.0066 24.0532 44H24.6132C25.3158 43.9988 26.0056 43.8126 26.6132 43.46L40.0332 35.7C40.6452 35.3574 41.1506 34.852 41.4932 34.24L41.7932 33.74C42.1414 33.1306 42.3274 32.442 42.3332 31.74V16.24C42.332 15.5375 42.1458 14.8477 41.7932 14.24ZM24.0332 8H24.6132L36.3332 14.76L24.3332 21.68L12.3332 14.76L24.0332 8ZM26.3332 39L38.0332 32.24L38.3332 31.74V18.22L26.3332 25.16V39Z" fill="#111111"/>
</svg>
